<?xml version="1.0" standalone="no"?>
<!DOCTYPE svg PUBLIC "-//W3C//DTD SVG 20010904//EN"
 "http://www.w3.org/TR/2001/REC-SVG-20010904/DTD/svg10.dtd">
<svg version="1.0" xmlns="http://www.w3.org/2000/svg"
 width="500.000000pt" height="500.000000pt" viewBox="0 0 500.000000 500.000000"
 preserveAspectRatio="xMidYMid meet">
<metadata>
Created by potrace 1.11, written by Peter Selinger 2001-2013
</metadata>
<g transform="translate(0.000000,500.000000) scale(0.100000,-0.100000)"
fill="#000000" stroke="none">
<path d="M0 2500 l0 -2500 2500 0 2500 0 0 2500 0 2500 -2500 0 -2500 0 0
-2500z m1420 897 l222 -245 77 34 c279 121 636 153 913 83 229 -58 443 -201
610 -407 81 -101 206 -293 303 -467 145 -260 219 -366 288 -416 22 -16 90 -44
152 -64 95 -29 118 -41 144 -70 37 -43 40 -79 8 -126 -29 -44 -76 -67 -182
-86 -48 -9 -88 -21 -90 -27 -36 -139 -70 -190 -128 -190 -44 0 -53 8 -136 118
-89 119 -219 242 -301 286 -62 34 -69 35 -160 33 -54 -1 -203 -19 -345 -41
-346 -55 -335 -54 -485 -53 -257 1 -507 60 -685 161 -49 28 -51 28 -105 14
-64 -17 -148 -18 -187 -3 -82 31 -95 94 -38 178 l36 51 -25 33 c-69 92 -106
210 -106 337 0 159 54 289 173 416 l70 75 -76 182 c-164 393 -185 447 -178
443 4 -3 108 -115 231 -249z m-635 -497 c79 -30 104 -152 44 -216 -13 -14 -93
-61 -179 -104 -85 -44 -161 -83 -168 -88 -9 -6 47 -41 187 -113 l201 -104 0
-48 c0 -124 -85 -178 -200 -126 -25 11 -131 70 -237 131 -204 119 -211 125
-228 216 -10 49 4 128 28 163 30 43 483 311 512 302 11 -3 29 -9 40 -13z
m3519 6 c19 -8 125 -67 236 -131 186 -108 204 -121 221 -159 22 -49 25 -152 5
-199 -20 -48 -41 -63 -286 -207 l-225 -132 -45 19 c-79 33 -111 112 -75 187
19 39 73 75 244 160 73 37 130 71 125 76 -5 4 -93 52 -197 106 -117 62 -189
105 -193 117 -10 31 6 104 28 132 36 46 99 58 162 31z"/>
<path d="M2095 3155 c-88 -14 -189 -41 -272 -72 l-42 -15 20 -36 c10 -20 19
-50 19 -66 0 -67 -81 -154 -165 -177 -57 -16 -98 -4 -139 41 l-36 40 -41 -53
c-151 -189 -141 -420 25 -603 l55 -61 -45 -44 c-24 -24 -44 -46 -44 -50 0 -9
68 7 119 27 38 15 40 15 78 -9 198 -125 412 -181 688 -181 153 0 196 4 430 43
314 52 457 62 541 35 32 -10 90 -39 129 -65 68 -46 202 -176 276 -269 l36 -45
13 72 c13 82 -4 71 150 93 41 6 76 12 78 14 2 2 -27 14 -64 26 -100 32 -142
56 -204 119 -72 72 -131 160 -264 395 -257 453 -412 632 -651 751 -155 78
-233 96 -435 101 -113 2 -193 -1 -255 -11z m-520 -510 c14 -13 25 -33 25 -45
0 -26 -43 -70 -68 -70 -29 0 -62 37 -62 70 0 33 33 70 62 70 11 0 30 -11 43
-25z m560 0 c14 -13 25 -33 25 -45 0 -26 -43 -70 -68 -70 -29 0 -62 37 -62 70
0 33 33 70 62 70 11 0 30 -11 43 -25z m-404 -237 c9 -7 23 -25 32 -40 33 -53
128 -45 148 11 17 49 73 53 85 5 21 -85 -105 -164 -215 -134 -62 16 -111 67
-111 114 0 23 6 39 18 45 22 13 25 13 43 -1z m623 -84 c23 -22 20 -47 -10 -75
-14 -13 -35 -37 -47 -53 l-20 -29 61 7 c35 4 81 14 104 22 23 8 50 12 60 8 24
-7 35 -52 17 -69 -20 -19 -114 -44 -189 -51 -89 -7 -134 15 -138 68 -4 47 15
84 73 142 50 50 65 55 89 30z"/>
</g>
</svg>
